<?xml version="1.0" encoding="UTF-8" standalone="no"?>
<!DOCTYPE svg PUBLIC "-//W3C//DTD SVG 1.1//EN" "http://www.w3.org/Graphics/SVG/1.1/DTD/svg11.dtd">
<svg xmlns="http://www.w3.org/2000/svg" version="1.1" viewBox="340 380 340 330">
  <path fill="#fefefe" d="
  M 509.64 402.19
  C 510.67 402.65 512.63 402.26 514.04 401.72
  Q 525.86 397.22 533.56 395.31
  Q 565.31 387.44 594.81 398.98
  Q 608.12 404.18 619.77 414.25
  Q 641.07 432.65 648.48 460.04
  Q 650.81 468.64 651.89 477.94
  Q 652.62 484.17 652.65 496.10
  Q 652.78 553.35 652.64 565.28
  Q 652.55 572.89 650.22 582.54
  Q 642.99 612.39 623.81 636.58
  Q 603.24 662.52 572.86 676.35
  Q 544.69 689.17 515.80 689.83
  Q 505.90 690.05 495.83 688.82
  Q 459.31 684.36 429.18 663.35
  Q 417.18 654.98 407.32 644.23
  Q 382.12 616.71 373.89 580.62
  C 372.19 573.18 371.31 566.56 371.29 558.63
  Q 371.29 557.99 371.23 494.52
  Q 371.22 482.08 372.33 474.61
  Q 374.52 459.91 380.16 446.98
  Q 393.07 417.39 420.91 402.87
  Q 448.62 388.42 480.02 393.38
  Q 495.07 395.75 509.64 402.19
  Z" />
  <path fill="#000000" d="
  M 511.25 426.50
  Q 512.39 426.96 514.62 425.89
  Q 530.46 418.29 547.58 415.41
  C 573.81 411.01 601.35 420.98 616.48 443.54
  Q 628.90 462.07 629.04 485.25
  Q 629.23 516.00 628.95 549.64
  Q 628.93 551.16 628.07 549.91
  Q 620.92 539.59 611.12 531.15
  Q 610.00 530.18 609.96 528.00
  Q 609.75 516.47 609.79 488.00
  Q 609.79 485.66 609.28 480.04
  C 607.41 459.21 594.83 441.61 574.37 436.17
  Q 562.92 433.13 551.30 434.91
  Q 538.27 436.89 528.51 441.54
  Q 520.04 445.57 517.02 447.00
  Q 511.57 449.57 507.30 447.24
  Q 499.46 442.96 493.23 440.34
  C 479.16 434.43 461.98 432.08 447.51 436.80
  Q 432.31 441.77 422.82 455.61
  Q 416.46 464.88 414.93 475.78
  Q 414.52 478.71 414.52 495.76
  Q 414.52 509.64 414.55 528.00
  Q 414.56 529.23 413.99 530.51
  Q 413.56 531.46 412.44 532.48
  Q 403.40 540.65 395.72 550.27
  Q 395.39 550.69 395.38 550.16
  Q 395.04 512.58 395.15 492.24
  Q 395.22 478.46 396.30 472.31
  C 402.44 437.40 432.39 411.51 468.52 414.53
  Q 483.87 415.81 498.50 421.51
  Q 509.41 425.77 511.25 426.50
  Z" />
  <path fill="#000000" d="
  M 444.3445 490.3180
  A 13.09 12.54 78.3 0 1 429.4105 480.0430
  A 13.09 12.54 78.3 0 1 439.0355 464.6820
  A 13.09 12.54 78.3 0 1 453.9695 474.9570
  A 13.09 12.54 78.3 0 1 444.3445 490.3180
  Z" />
  <path fill="#000000" d="
  M 585.3392 490.3906
  A 13.15 12.78 78.6 0 1 570.2121 480.0261
  A 13.15 12.78 78.6 0 1 580.1408 464.6094
  A 13.15 12.78 78.6 0 1 595.2679 474.9739
  A 13.15 12.78 78.6 0 1 585.3392 490.3906
  Z" />
  <path fill="#000000" d="
  M 526.91 526.41
  C 522.97 530.93 522.43 538.18 523.39 543.91
  Q 524.12 548.36 527.45 553.37
  Q 534.95 564.70 547.14 569.45
  Q 550.05 570.59 558.62 573.27
  C 574.40 578.20 580.69 594.15 578.79 609.75
  Q 576.60 627.75 565.28 640.82
  Q 542.91 666.67 508.95 665.40
  C 487.18 664.59 467.70 653.79 455.05 636.03
  Q 443.01 619.13 445.37 598.67
  Q 446.46 589.21 452.02 582.04
  Q 456.84 575.82 465.08 573.60
  Q 468.35 572.71 476.81 569.68
  Q 489.57 565.09 497.04 553.55
  C 503.64 543.36 503.48 527.39 491.36 521.28
  Q 489.02 520.10 482.69 517.36
  C 480.57 516.44 477.65 514.08 476.97 511.55
  C 475.21 505.01 479.91 501.14 485.95 499.92
  Q 489.68 499.16 496.25 500.05
  Q 508.35 501.68 510.21 501.93
  Q 511.90 502.15 512.62 502.16
  Q 513.49 502.18 514.95 501.87
  C 523.26 500.11 546.43 494.83 547.66 508.60
  Q 548.15 514.18 542.96 516.74
  C 537.65 519.36 531.36 521.31 526.91 526.41
  Z" />
  <path fill="#000000" d="
  M 607.13 558.32
  Q 620.71 575.83 620.41 597.46
  Q 620.37 600.91 618.86 604.55
  C 616.49 610.28 608.11 610.85 604.72 605.81
  Q 603.14 603.47 602.84 599.49
  Q 600.82 573.59 580.19 559.35
  C 573.79 554.94 562.95 554.58 564.27 544.55
  C 564.88 539.90 568.65 537.11 573.24 537.20
  Q 577.07 537.27 581.05 538.71
  Q 596.18 544.20 607.13 558.32
  Z" />
  <path fill="#000000" d="
  M 454.38 554.45
  C 437.06 560.22 424.82 575.22 421.87 593.05
  Q 420.99 598.33 420.75 599.94
  Q 420.00 604.86 418.69 606.48
  C 415.12 610.88 408.23 610.09 405.37 605.14
  Q 404.20 603.12 403.98 598.64
  Q 403.40 586.52 407.54 575.79
  Q 416.45 552.72 438.12 540.87
  Q 443.60 537.87 449.73 537.45
  C 454.92 537.10 459.97 539.54 460.37 545.06
  Q 460.60 548.29 459.06 550.60
  Q 457.10 553.54 454.38 554.45
  Z" />
  <path fill="#fefefe" d="
  M 512.06 566.04
  L 512.39 566.27
  Q 512.85 566.59 512.98 566.88
  Q 513.92 568.95 515.66 571.11
  Q 524.17 581.70 535.22 587.06
  C 538.83 588.82 544.75 590.81 547.92 592.06
  Q 553.32 594.20 555.21 596.09
  C 564.07 604.91 555.81 620.72 549.19 628.20
  Q 535.55 643.60 514.08 644.39
  Q 490.31 645.26 474.93 627.75
  C 469.43 621.49 465.33 612.69 465.18 604.02
  C 465.08 598.37 468.93 594.59 473.90 592.62
  C 479.08 590.56 486.57 588.51 492.24 585.37
  Q 500.10 581.01 506.99 573.00
  Q 509.57 570.01 511.08 566.43
  A 0.74 0.62 -61.6 0 1 512.06 566.04
  Z" />
</svg>
