<?xml version="1.0" encoding="UTF-8" standalone="no"?>
<!DOCTYPE svg PUBLIC "-//W3C//DTD SVG 1.1//EN" "http://www.w3.org/Graphics/SVG/1.1/DTD/svg11.dtd">
<svg xmlns="http://www.w3.org/2000/svg" version="1.1" viewBox="0.00 0.00 1024.00 1024.00">
<path fill="#000000" d="
  M 1024.00 0.00
  L 1024.00 1024.00
  L 0.00 1024.00
  L 0.00 0.00
  L 1024.00 0.00
  Z"
/>
<path fill="#fefefe" d="
  M 509.75 401.80
  C 510.73 402.25 512.14 402.13 513.19 401.71
  Q 522.78 397.93 524.57 397.32
  C 554.87 386.90 588.89 390.22 614.77 409.60
  C 637.35 426.51 649.57 450.70 652.42 478.53
  Q 653.06 484.74 653.09 498.50
  Q 653.11 513.42 653.09 558.81
  Q 653.08 574.66 650.11 585.60
  Q 640.45 621.16 615.04 647.30
  Q 590.87 672.15 556.71 683.16
  Q 519.36 695.20 482.09 686.95
  Q 442.18 678.11 413.78 651.43
  Q 385.67 625.02 374.98 587.26
  Q 370.93 572.94 370.87 560.50
  Q 370.70 523.37 370.78 496.78
  Q 370.82 483.30 371.58 476.81
  C 373.95 456.58 382.40 436.02 396.18 421.14
  C 412.29 403.74 434.26 393.12 457.98 391.75
  Q 484.40 390.22 509.75 401.80
  Z"
/>
<path fill="#000000" d="
  M 511.50 426.53
  Q 512.38 426.79 514.05 426.03
  Q 525.06 421.03 537.92 417.41
  C 559.29 411.40 582.25 414.23 600.40 427.08
  C 616.04 438.15 625.92 456.16 628.32 474.91
  Q 629.08 480.85 629.12 492.50
  Q 629.21 522.77 628.94 549.71
  Q 628.93 551.13 628.12 549.96
  Q 620.98 539.66 611.02 531.07
  Q 609.82 530.04 609.83 526.80
  Q 609.89 500.66 609.63 484.56
  Q 609.41 471.42 603.81 460.39
  C 593.73 440.54 573.84 431.93 552.26 434.78
  Q 538.76 436.56 528.16 441.67
  Q 519.03 446.07 516.10 447.32
  C 513.51 448.42 511.19 448.93 508.43 447.67
  Q 505.26 446.21 499.39 443.17
  Q 486.42 436.45 472.00 434.78
  C 452.33 432.50 434.91 438.57 423.16 455.15
  Q 416.73 464.23 415.18 474.46
  Q 414.40 479.61 414.45 486.51
  Q 414.63 512.63 414.50 528.25
  C 414.49 529.92 413.80 531.25 412.49 532.43
  Q 403.44 540.62 395.73 550.28
  Q 395.38 550.70 395.38 550.15
  Q 395.09 520.27 395.16 499.50
  Q 395.22 482.10 395.42 479.52
  C 398.43 440.67 430.60 410.37 470.52 414.70
  Q 486.09 416.38 501.41 422.62
  Q 509.63 425.97 511.50 426.53
  Z"
/>
<path fill="#000000" d="
  M 444.3445 490.3180
  A 13.09 12.54 78.3 0 1 429.4105 480.0430
  A 13.09 12.54 78.3 0 1 439.0355 464.6820
  A 13.09 12.54 78.3 0 1 453.9695 474.9570
  A 13.09 12.54 78.3 0 1 444.3445 490.3180
  Z"
/>
<path fill="#000000" d="
  M 585.3392 490.3906
  A 13.15 12.78 78.6 0 1 570.2121 480.0261
  A 13.15 12.78 78.6 0 1 580.1408 464.6094
  A 13.15 12.78 78.6 0 1 595.2679 474.9739
  A 13.15 12.78 78.6 0 1 585.3392 490.3906
  Z"
/>
<path fill="#000000" d="
  M 526.96 526.41
  C 521.42 532.74 522.03 544.34 526.26 551.49
  Q 533.90 564.40 547.75 569.61
  L 560.40 574.09
  Q 568.13 576.82 572.67 583.09
  C 579.97 593.16 580.40 606.30 577.16 618.46
  Q 574.32 629.09 567.15 638.41
  C 553.85 655.70 534.15 665.54 512.43 665.51
  Q 478.90 665.45 457.20 638.93
  Q 442.73 621.25 445.48 598.02
  C 446.80 586.86 453.81 576.37 465.06 573.55
  Q 468.23 572.76 476.81 569.69
  Q 489.70 565.08 497.22 553.24
  C 503.68 543.08 503.32 527.31 491.36 521.28
  Q 489.01 520.10 482.69 517.36
  C 480.55 516.43 477.69 514.11 476.99 511.54
  C 475.21 505.01 479.90 501.14 485.95 499.92
  Q 489.68 499.16 496.25 500.05
  Q 510.08 501.91 510.21 501.93
  Q 511.88 502.15 512.62 502.16
  Q 513.53 502.18 514.99 501.87
  C 523.25 500.12 546.50 494.82 547.64 508.61
  Q 548.11 514.22 542.96 516.74
  C 537.66 519.34 531.49 521.23 526.96 526.41
  Z"
/>
<path fill="#000000" d="
  M 606.10 556.99
  Q 618.23 572.15 620.13 589.89
  Q 621.05 598.47 619.47 602.97
  Q 616.92 610.28 609.73 609.03
  Q 604.52 608.12 603.35 602.42
  C 602.54 598.43 602.18 592.80 601.13 588.82
  Q 596.09 569.84 579.70 559.09
  C 576.42 556.94 572.05 555.61 569.20 554.02
  Q 564.71 551.51 564.21 547.11
  Q 563.71 542.76 566.48 539.84
  Q 569.88 536.25 576.29 537.49
  C 587.96 539.75 598.91 548.00 606.10 556.99
  Z"
/>
<path fill="#000000" d="
  M 432.93 568.93
  Q 424.27 579.36 421.82 593.53
  Q 420.24 602.69 420.21 602.80
  Q 418.89 608.88 413.37 609.28
  Q 410.40 609.50 408.13 608.09
  C 404.66 605.94 404.09 602.10 403.92 598.02
  C 402.96 574.98 416.37 553.97 435.71 542.20
  Q 443.14 537.67 450.82 537.38
  C 455.49 537.21 460.21 540.21 460.37 545.30
  Q 460.56 551.33 455.38 553.87
  C 451.52 555.77 446.25 557.49 442.35 560.36
  Q 436.45 564.69 432.93 568.93
  Z"
/>
<path fill="#fefefe" d="
  M 512.07 566.07
  C 512.34 566.20 512.85 566.57 513.02 566.94
  Q 513.87 568.86 515.73 571.19
  Q 523.61 581.04 534.23 586.58
  C 539.16 589.16 546.99 591.45 552.10 593.88
  C 560.44 597.84 560.11 608.51 557.03 615.55
  Q 548.44 635.22 528.40 641.92
  Q 517.65 645.51 505.92 644.09
  Q 484.13 641.45 471.92 623.74
  Q 467.00 616.60 465.41 608.08
  Q 463.40 597.31 473.27 593.00
  Q 474.43 592.49 485.16 588.57
  Q 497.73 583.97 507.00 573.00
  Q 509.68 569.83 511.09 566.44
  Q 511.38 565.74 512.07 566.07
  Z"
/>
</svg>
